<?xml version="1.0" standalone="no"?>
<!DOCTYPE svg PUBLIC "-//W3C//DTD SVG 20010904//EN"
 "http://www.w3.org/TR/2001/REC-SVG-20010904/DTD/svg10.dtd">
<svg version="1.0" xmlns="http://www.w3.org/2000/svg"
 width="400.000000pt" height="400.000000pt" viewBox="0 0 400.000000 400.000000"
 preserveAspectRatio="xMidYMid meet">
<metadata>
Created by potrace 1.14, written by Peter Selinger 2001-2017
</metadata>
<g transform="translate(0.000000,400.000000) scale(0.100000,-0.100000)"
fill="#000000" stroke="none">
<path d="M1473 3733 c-33 -6 -28 -23 6 -23 16 0 31 -6 34 -12 2 -7 8 -9 13 -5
9 9 -7 40 -22 42 -5 1 -19 0 -31 -2z"/>
<path d="M1410 3715 c0 -8 5 -15 10 -15 6 0 10 7 10 15 0 8 -4 15 -10 15 -5 0
-10 -7 -10 -15z"/>
<path d="M1300 3690 c0 -5 5 -10 10 -10 6 0 10 5 10 10 0 6 -4 10 -10 10 -5 0
-10 -4 -10 -10z"/>
<path d="M1335 3670 c3 -5 8 -10 11 -10 2 0 4 5 4 10 0 6 -5 10 -11 10 -5 0
-7 -4 -4 -10z"/>
<path d="M2773 3633 c-7 -2 -13 -11 -13 -19 0 -18 -27 -18 -46 1 -20 20 -34
19 -34 -2 0 -15 -1 -15 -13 1 -12 16 -23 17 -83 11 l-70 -7 -27 -57 c-15 -32
-27 -67 -27 -79 0 -12 -4 -22 -8 -22 -5 0 -15 -18 -22 -39 -8 -26 -17 -38 -26
-34 -8 3 -14 -1 -14 -10 0 -8 -10 -17 -22 -20 -29 -8 -47 4 -20 14 12 5 19 14
17 21 -3 7 5 18 17 23 21 9 23 16 20 71 -2 37 1 64 7 68 16 10 13 26 -4 26 -8
0 -15 5 -15 10 0 6 -25 10 -56 10 l-56 0 7 -92 c4 -51 12 -96 18 -100 7 -4 8
-14 1 -29 -7 -15 -7 -40 -2 -69 5 -25 12 -123 17 -218 4 -104 12 -177 18 -183
7 -7 37 -12 67 -13 51 -1 56 0 56 20 0 12 -6 25 -12 28 -10 5 -10 7 0 12 6 3
12 20 12 38 0 18 5 37 10 42 16 16 -9 64 -32 64 -20 0 -24 20 -6 38 9 9 7 13
-6 18 -11 4 -15 13 -11 25 4 13 1 19 -8 19 -13 0 -13 4 -4 25 14 29 57 35 57
8 0 -13 3 -14 11 -6 9 9 16 8 27 -3 13 -14 12 -17 -7 -30 -27 -19 -27 -45 3
-108 13 -28 32 -69 42 -91 10 -22 20 -44 22 -49 2 -4 -15 -5 -38 -1 -34 6 -41
4 -38 -6 8 -23 414 -17 437 7 3 2 1 21 -5 42 -11 41 -7 75 7 67 5 -4 9 3 9 15
0 17 3 19 19 10 11 -5 22 -6 25 -1 3 4 -12 17 -34 27 -38 18 -52 34 -30 34 6
0 10 13 10 29 0 17 -4 33 -10 36 -5 3 -10 21 -10 38 0 18 -4 38 -9 46 -6 10
-5 18 3 25 10 8 11 20 4 44 -10 38 -23 41 -39 10 -7 -13 -18 -27 -24 -33 -19
-15 -26 -57 -12 -74 10 -12 8 -13 -16 -9 l-29 6 7 -62 c4 -33 10 -62 14 -63 8
-4 6 -182 -3 -191 -4 -4 -6 0 -4 8 2 11 -7 16 -32 18 -27 2 -32 0 -20 -8 12
-8 9 -10 -15 -8 -27 3 -41 18 -58 63 -3 6 -14 -1 -26 -14 -16 -18 -21 -20 -21
-8 0 8 6 17 13 20 10 4 10 7 0 18 -18 18 -16 30 2 23 17 -7 33 25 18 35 -6 3
-14 17 -18 31 -4 14 -15 34 -25 45 -9 11 -25 43 -35 70 -10 28 -27 58 -37 68
-20 20 -16 56 8 70 8 4 14 21 14 37 0 16 5 32 10 35 6 4 8 15 5 24 -7 22 10
37 53 46 17 3 32 11 32 17 0 5 12 7 29 3 22 -5 32 -2 39 11 15 27 32 7 32 -37
0 -37 2 -40 23 -34 12 4 29 9 38 11 10 3 20 -3 24 -13 6 -16 8 -16 26 6 10 12
16 28 12 33 -3 6 -9 36 -12 67 l-6 56 -40 2 c-22 0 -46 -1 -52 -4z m-363 -537
c0 -3 -4 -8 -10 -11 -5 -3 -10 -1 -10 4 0 6 5 11 10 11 6 0 10 -2 10 -4z"/>
<path d="M1798 3613 c7 -3 16 -2 19 1 4 3 -2 6 -13 5 -11 0 -14 -3 -6 -6z"/>
<path d="M1662 3533 c5 -43 6 -84 3 -92 -3 -7 0 -20 6 -27 7 -8 13 -60 15
-122 2 -59 6 -123 8 -142 5 -28 2 -24 -15 20 -12 30 -29 73 -39 95 -10 22 -21
51 -25 65 -3 14 -15 44 -26 67 -10 24 -19 48 -19 55 0 7 -9 33 -20 56 l-20 44
-52 -7 c-29 -4 -57 -10 -61 -15 -5 -4 -1 -103 8 -219 19 -249 20 -254 26 -266
3 -6 6 -36 8 -67 2 -42 -1 -58 -10 -58 -7 0 -10 -3 -6 -6 7 -8 107 17 107 27
0 4 -6 9 -14 12 -8 3 -20 16 -27 29 -12 22 -12 22 14 5 15 -9 29 -17 32 -17 9
0 5 128 -6 201 -11 70 -7 115 7 70 4 -13 18 -44 30 -70 13 -25 24 -53 24 -61
0 -8 12 -37 25 -65 14 -27 25 -56 25 -62 0 -9 18 -13 58 -13 31 0 85 -6 119
-13 63 -14 79 -4 20 11 -30 8 -32 11 -39 68 -3 32 -8 105 -9 162 -1 57 -6 105
-11 108 -5 3 -3 13 4 22 10 12 10 16 1 19 -21 7 -15 23 10 23 19 1 20 2 5 10
-10 6 -19 29 -23 58 -4 26 -8 56 -10 67 -2 11 -4 28 -4 38 -1 14 -11 17 -56
17 -52 0 -55 1 -45 19 14 27 13 31 -8 31 -17 0 -18 -6 -10 -77z"/>
<path d="M2058 3592 l-48 -3 0 -37 c0 -82 2 -83 99 -76 93 7 115 16 106 45 -4
12 -1 21 9 25 20 8 21 24 1 24 -9 0 -12 6 -8 16 6 16 -2 16 -159 6z"/>
<path d="M1892 3583 c-23 -5 -23 -5 -15 -111 4 -59 7 -122 7 -139 0 -18 4 -33
9 -33 4 0 8 -12 6 -27 -1 -16 1 -35 4 -43 3 -8 7 -71 9 -138 3 -119 4 -125 28
-143 14 -10 30 -23 36 -28 7 -5 21 -7 32 -4 22 5 23 17 7 185 -7 69 -6 76 11
80 11 2 19 12 19 22 0 27 21 31 28 6 8 -32 44 -25 64 13 13 24 18 28 21 15 2
-10 8 -18 13 -18 12 0 12 37 -1 45 -5 3 -7 12 -4 19 7 17 -41 27 -72 16 -12
-5 -25 -18 -29 -30 -6 -20 -8 -20 -24 -6 -23 21 -35 20 -27 -1 5 -15 4 -15 -9
1 -17 23 -19 36 -5 36 6 0 10 9 10 19 0 11 6 21 13 24 9 3 8 8 -3 22 -8 10
-16 36 -17 59 -2 23 -5 59 -7 81 -2 22 -4 50 -5 63 -1 19 -6 22 -38 21 -21 -1
-48 -4 -61 -6z m68 -328 c0 -8 -4 -15 -9 -15 -5 0 -11 7 -15 15 -3 9 0 15 9
15 8 0 15 -7 15 -15z"/>
<path d="M1360 3530 c0 -5 5 -10 10 -10 6 0 10 5 10 10 0 6 -4 10 -10 10 -5 0
-10 -4 -10 -10z"/>
<path d="M1060 3511 c-19 -5 -26 -15 -28 -40 -2 -19 1 -38 6 -43 12 -12 3 -50
-10 -42 -5 4 -8 -29 -7 -83 2 -48 -1 -97 -7 -108 -6 -11 -11 -63 -13 -115 -1
-52 -6 -101 -11 -110 -4 -8 -11 -45 -15 -82 l-7 -68 -38 0 c-55 0 -68 7 -80
46 -14 40 -25 43 -34 9 -7 -27 -26 -34 -26 -10 0 8 5 15 10 15 6 0 10 7 10 15
0 8 -5 15 -11 15 -5 0 -7 5 -4 10 4 6 11 8 16 5 14 -9 23 23 11 38 -6 6 -10
14 -10 17 -1 13 -22 58 -29 61 -8 4 -53 91 -53 104 0 4 -9 18 -20 32 -20 26
-20 26 0 58 11 18 20 42 20 54 0 11 5 21 11 21 7 0 9 10 6 26 -5 28 18 58 39
50 8 -3 14 -1 14 5 0 6 4 8 9 4 5 -3 12 -1 16 5 3 5 21 10 40 10 19 0 37 5 40
11 4 6 13 8 21 5 9 -3 14 1 14 14 0 21 -53 52 -76 43 -8 -3 -21 0 -29 7 -20
16 -145 6 -157 -12 -4 -7 -15 -33 -24 -58 -28 -78 -69 -165 -79 -169 -5 -1 -9
-7 -8 -11 2 -5 -12 -8 -29 -8 -27 1 -29 3 -14 13 9 7 16 15 16 19 0 3 8 14 18
24 14 14 16 31 14 100 l-4 83 -56 -3 -57 -3 3 -60 c4 -84 20 -273 27 -315 3
-19 7 -92 8 -162 2 -86 7 -132 16 -142 9 -11 30 -16 67 -16 47 0 54 3 54 19 0
11 -5 23 -10 26 -6 4 -5 12 4 20 8 8 12 24 9 35 -3 12 2 29 11 39 17 18 16 20
-18 47 -29 23 -33 31 -25 47 8 14 7 22 -7 31 -12 9 -14 15 -5 20 6 4 9 12 5
17 -3 5 -10 7 -15 4 -15 -10 -10 11 9 35 17 21 19 21 35 6 9 -10 21 -15 26
-12 5 3 14 -1 21 -10 11 -12 10 -17 -8 -30 -12 -8 -22 -25 -22 -36 0 -19 38
-109 75 -179 18 -33 12 -39 -31 -32 -21 3 -34 1 -34 -5 0 -19 101 -24 263 -13
87 6 162 13 167 16 5 3 11 39 15 80 8 81 7 81 80 87 28 3 31 0 42 -42 7 -25
12 -55 13 -67 1 -47 39 -59 98 -30 27 13 29 37 3 37 -26 0 -51 10 -51 21 0 5
14 6 30 3 20 -4 30 -2 30 5 0 15 -38 176 -51 218 -6 18 -7 38 -4 43 4 6 2 16
-3 23 -5 7 -13 32 -17 57 -4 25 -11 50 -16 56 -5 7 -17 43 -25 80 -32 143 -23
129 -84 131 -30 1 -66 -2 -80 -6z m93 -298 c4 -23 15 -61 26 -85 l18 -43 -42
3 -42 4 5 80 c4 61 1 82 -9 89 -10 6 -11 9 -1 9 6 0 12 10 12 23 1 19 2 18 14
-8 7 -16 16 -49 19 -72z m-75 -48 c-10 -11 -58 -16 -58 -6 0 6 5 11 11 11 6 0
18 8 27 17 16 16 17 15 20 -1 2 -10 2 -19 0 -21z m-498 -199 c0 -3 -4 -8 -10
-11 -5 -3 -10 -1 -10 4 0 6 5 11 10 11 6 0 10 -2 10 -4z"/>
<path d="M2240 3510 c0 -5 5 -10 10 -10 6 0 10 5 10 10 0 6 -4 10 -10 10 -5 0
-10 -4 -10 -10z"/>
<path d="M956 3492 c-3 -6 -1 -14 5 -17 15 -10 25 3 12 16 -7 7 -13 7 -17 1z"/>
<path d="M2798 3415 c-19 -11 -25 -20 -21 -35 9 -32 37 -24 49 15 12 39 10 40
-28 20z"/>
<path d="M2030 3390 c0 -5 9 -10 20 -10 11 0 20 5 20 10 0 6 -9 10 -20 10 -11
0 -20 -4 -20 -10z"/>
<path d="M1845 3380 c3 -5 8 -10 11 -10 2 0 4 5 4 10 0 6 -5 10 -11 10 -5 0
-7 -4 -4 -10z"/>
<path d="M1880 3156 c0 -9 5 -16 10 -16 6 0 10 4 10 9 0 6 -4 13 -10 16 -5 3
-10 -1 -10 -9z"/>
<path d="M2060 2963 c0 -41 0 -42 52 -57 58 -17 72 -13 62 16 -4 14 -2 18 5
14 6 -4 11 -14 11 -22 0 -8 7 -14 15 -14 12 0 15 13 15 56 l0 55 -80 -3 -80
-3 0 -42z"/>
<path d="M3280 2941 c0 -8 52 -23 59 -16 1 2 0 8 -4 14 -8 13 -55 15 -55 2z"/>
<path d="M3245 2930 c3 -5 8 -10 11 -10 2 0 4 5 4 10 0 6 -5 10 -11 10 -5 0
-7 -4 -4 -10z"/>
<path d="M1888 2913 c7 -3 16 -2 19 1 4 3 -2 6 -13 5 -11 0 -14 -3 -6 -6z"/>
<path d="M3320 2889 c0 -5 5 -7 10 -4 6 3 10 8 10 11 0 2 -4 4 -10 4 -5 0 -10
-5 -10 -11z"/>
<path d="M1950 2850 c-13 -8 -13 -10 2 -10 9 0 20 5 23 10 8 13 -5 13 -25 0z"/>
<path d="M3434 2825 c4 -14 9 -82 12 -152 3 -71 9 -140 14 -155 5 -16 5 -28 1
-28 -5 0 -11 13 -14 29 -4 16 -15 49 -26 73 -10 24 -27 68 -36 98 -10 30 -22
61 -28 68 -6 8 -6 12 2 12 17 0 13 14 -9 28 -13 8 -35 10 -61 6 l-41 -7 5 -96
c2 -53 9 -150 15 -216 7 -66 13 -140 15 -165 l3 -45 39 0 40 0 -1 45 c-1 25
-5 92 -9 150 -8 113 -1 122 30 35 10 -27 28 -73 41 -102 13 -28 24 -57 24 -63
0 -6 7 -21 15 -33 12 -18 22 -22 58 -19 l44 4 -7 41 c-5 23 -11 119 -14 212
-7 168 -12 238 -21 263 -2 6 -20 12 -40 12 -24 0 -35 4 -35 15 0 8 -5 15 -11
15 -7 0 -9 -10 -5 -25z"/>
<path d="M2317 2789 c7 -7 15 -10 18 -7 3 3 -2 9 -12 12 -14 6 -15 5 -6 -5z"/>
<path d="M2973 2792 c-15 -2 -23 -10 -23 -23 0 -21 -15 -26 -25 -8 -4 6 -14 8
-22 5 -9 -4 -21 -2 -28 4 -8 7 -32 8 -62 4 -52 -6 -56 -11 -98 -124 -18 -48
-40 -73 -67 -78 -14 -2 -13 2 7 24 21 23 25 37 25 90 0 34 -4 66 -10 69 -5 3
-26 3 -46 -1 l-36 -7 6 -61 c4 -33 9 -87 12 -118 6 -59 -2 -72 -26 -43 -7 9
-15 13 -18 10 -3 -3 8 -19 24 -36 27 -28 29 -35 34 -142 3 -62 9 -118 13 -124
5 -7 26 -12 48 -11 37 1 40 4 36 25 -2 13 0 23 5 23 5 0 6 9 3 20 -4 12 -2 27
5 35 8 10 8 19 -2 34 -7 12 -16 21 -19 21 -4 0 -5 9 -2 20 3 12 0 20 -7 20 -7
0 -10 7 -6 15 3 8 1 15 -4 15 -6 0 -10 7 -10 15 0 20 30 32 40 15 4 -7 13 -9
19 -6 6 4 14 0 18 -10 4 -10 0 -20 -10 -26 -10 -5 -17 -15 -17 -23 0 -12 33
-87 61 -137 8 -15 5 -18 -21 -18 -16 0 -30 -5 -30 -10 0 -7 52 -10 150 -9 83
0 150 5 150 10 0 5 11 9 25 9 26 0 32 9 16 26 -5 5 -11 41 -15 79 -3 39 -9 82
-12 98 -5 22 -3 26 10 21 10 -4 18 0 22 10 9 24 -4 66 -21 66 -8 0 -15 9 -15
20 0 11 5 20 10 20 6 0 10 7 10 15 0 8 -4 15 -10 15 -6 0 -10 25 -9 58 0 42 2
52 9 35 8 -19 14 -21 72 -16 71 6 69 5 72 28 1 9 8 20 15 24 6 4 9 15 5 24 -5
14 -20 17 -78 17 -39 0 -78 -4 -86 -9 -8 -6 -19 -7 -24 -3 -13 7 -33 9 -63 4z
m-19 -119 c3 -27 7 -59 10 -73 5 -32 28 -265 30 -305 1 -29 -1 -30 -46 -33
-44 -2 -47 0 -57 30 -11 30 -12 31 -25 12 -13 -18 -14 -17 -13 9 1 15 5 27 10
27 13 0 7 24 -23 85 -17 33 -30 64 -30 69 0 5 -9 19 -20 31 l-21 22 25 49 c13
26 22 52 19 57 -8 12 17 37 38 37 11 0 19 5 19 11 0 7 10 9 24 5 14 -3 28 -2
31 4 13 21 23 8 29 -37z"/>
<path d="M1210 2744 c-46 -46 -104 -79 -127 -70 -7 3 -15 1 -18 -4 -4 -6 7
-10 24 -10 37 0 38 -6 9 -37 -12 -13 -19 -26 -15 -29 6 -7 34 21 84 82 17 21
45 54 62 72 28 30 36 42 28 42 -2 0 -23 -21 -47 -46z"/>
<path d="M1980 2779 c0 -6 6 -20 12 -32 7 -12 18 -38 24 -57 l12 -35 1 43 c1
24 -3 51 -9 61 -11 21 -40 35 -40 20z"/>
<path d="M1760 2745 c-16 -19 -3 -19 30 0 24 13 24 14 4 15 -12 0 -27 -7 -34
-15z"/>
<path d="M2410 2711 c0 -5 5 -13 10 -16 6 -3 10 -2 10 4 0 5 -4 13 -10 16 -5
3 -10 2 -10 -4z"/>
<path d="M3600 2690 c0 -5 6 -10 14 -10 8 0 18 5 21 10 3 6 -3 10 -14 10 -12
0 -21 -4 -21 -10z"/>
<path d="M1345 2642 c-69 -13 -92 -24 -119 -58 -16 -21 -23 -33 -15 -29 8 5
34 22 58 37 52 32 66 35 57 11 -5 -12 2 -9 20 9 30 30 30 36 -1 30z"/>
<path d="M2442 2593 c25 -30 65 -109 83 -165 17 -51 44 -96 32 -53 -14 51 -55
153 -75 185 -12 19 -22 38 -22 43 0 4 -7 7 -17 7 -14 0 -15 -2 -1 -17z"/>
<path d="M3113 2573 c-8 -2 -13 -22 -13 -44 0 -35 3 -39 25 -39 18 0 25 5 25
19 0 11 5 23 10 26 6 3 10 -1 10 -9 0 -9 5 -16 11 -16 7 0 9 9 5 23 -3 12 -6
28 -6 35 0 12 -42 15 -67 5z"/>
<path d="M3600 2504 c0 -8 5 -12 10 -9 6 3 10 10 10 16 0 5 -4 9 -10 9 -5 0
-10 -7 -10 -16z"/>
<path d="M2310 2503 c0 -4 11 -27 24 -50 13 -23 27 -56 31 -72 8 -36 15 -39
33 -10 12 18 10 25 -14 57 -32 44 -74 86 -74 75z"/>
<path d="M1606 2379 c-23 -27 -36 -73 -35 -119 l1 -35 9 35 c5 19 14 44 19 55
11 25 30 85 27 85 -2 0 -11 -10 -21 -21z"/>
<path d="M1502 2370 c-14 -23 -16 -40 -3 -40 9 0 25 49 19 56 -2 2 -9 -6 -16
-16z"/>
<path d="M3135 2353 c-41 -6 -48 -16 -40 -51 7 -35 23 -44 64 -36 22 5 28 11
24 23 -4 14 -3 14 10 -1 22 -28 28 -22 25 25 -3 46 -13 50 -83 40z"/>
<path d="M2560 2333 c0 -4 5 -15 10 -23 8 -13 10 -13 10 2 0 9 -4 20 -10 23
-5 3 -10 3 -10 -2z"/>
<path d="M956 2308 c-10 -38 -7 -63 10 -84 15 -18 15 -18 9 6 -4 14 -7 42 -6
63 2 42 -4 48 -13 15z"/>
<path d="M2164 2301 c3 -18 7 -72 8 -120 1 -76 2 -80 8 -36 4 28 8 44 8 38 4
-26 20 -12 25 20 3 24 -3 45 -25 82 -28 48 -30 48 -24 16z"/>
<path d="M1858 2280 c-3 -25 -9 -56 -13 -69 -6 -17 -5 -22 3 -17 12 7 26 84
20 112 -3 11 -7 -1 -10 -26z"/>
<path d="M2332 2295 c0 -16 2 -22 5 -12 2 9 2 23 0 30 -3 6 -5 -1 -5 -18z"/>
<path d="M1525 2260 c-17 -33 -19 -44 -6 -35 15 8 41 65 30 65 -4 0 -15 -13
-24 -30z"/>
<path d="M1142 2257 c-19 -21 -41 -77 -29 -77 7 0 58 92 54 96 -2 2 -13 -6
-25 -19z"/>
<path d="M1346 2228 c-9 -24 -22 -70 -30 -103 -10 -43 -15 -52 -16 -30 l-1 30
-14 -25 -15 -25 6 30 c4 21 2 26 -4 15 -18 -29 -34 -134 -35 -232 0 -54 -3
-98 -7 -98 -9 0 -36 59 -45 100 -8 35 -8 35 -17 10 -18 -48 -48 -173 -48 -204
-1 -28 -2 -29 -14 -13 -25 32 -27 0 -4 -49 17 -35 20 -48 11 -51 -7 -3 -13
-15 -13 -27 0 -12 -7 -32 -16 -44 -22 -32 3 -29 38 5 31 29 40 13 13 -23 -23
-31 -19 -51 6 -28 21 18 21 18 17 -16 -3 -31 -6 -35 -35 -38 -33 -3 -42 -15
-23 -27 6 -3 10 -11 10 -16 0 -5 -10 -3 -23 5 l-22 15 7 -111 c4 -61 9 -117
12 -124 7 -17 -6 -18 -23 -2 -11 11 -12 9 -7 -9 4 -13 -3 -45 -18 -83 -25 -62
-15 -82 13 -24 8 16 18 31 23 32 4 2 8 10 8 18 0 29 19 12 27 -23 l7 -38 7 55
c4 30 7 85 8 121 1 94 61 245 106 269 13 7 21 18 18 26 -3 8 5 18 20 23 14 5
32 20 41 32 30 44 30 7 -1 -84 -17 -51 -34 -104 -37 -119 -3 -14 -9 -33 -12
-42 -5 -12 0 -16 20 -16 14 0 26 -5 26 -11 0 -7 -11 -8 -29 -4 -29 6 -30 5
-36 -42 -3 -26 -8 -60 -10 -75 -3 -16 -3 -28 -1 -28 2 0 27 34 55 75 38 54 58
75 74 75 20 1 19 3 -12 30 -32 27 -33 31 -27 75 12 78 53 105 104 69 13 -9 26
-13 30 -9 4 3 -2 11 -13 17 -19 11 -19 11 0 19 19 7 19 8 -1 8 -12 1 -38 14
-59 31 l-38 30 36 15 c20 8 39 15 43 15 4 0 26 10 50 22 43 21 44 23 44 70 0
45 3 49 39 74 22 14 44 23 50 20 14 -9 59 22 67 46 3 11 15 29 25 39 33 33 21
42 -23 17 -24 -14 -51 -28 -62 -32 -18 -6 -18 -5 -2 18 11 18 16 48 16 103 0
43 5 96 11 118 20 78 19 89 -5 40 -13 -27 -26 -80 -30 -117 -4 -38 -11 -68
-16 -68 -4 0 -11 -12 -16 -27 -7 -27 -8 -26 -16 17 -5 25 -12 68 -16 97 -5 29
-11 55 -14 58 -7 7 -29 -115 -23 -126 7 -10 -16 -17 -37 -11 -9 2 -14 10 -11
18 3 8 9 12 13 9 5 -3 11 30 15 72 3 43 11 88 17 100 20 40 0 36 -21 -4 l-20
-38 -1 35 c-1 33 -2 33 -10 10 -5 -14 -12 -65 -15 -114 -5 -62 -10 -85 -17
-75 -7 11 -11 11 -15 2 -11 -29 -123 -3 -123 28 0 11 117 12 123 2 2 -5 2 -1
0 7 -3 8 -7 36 -10 63 -3 26 -10 47 -15 47 -6 0 -7 -22 -4 -52 5 -44 4 -49 -5
-28 -7 16 -9 67 -6 138 2 61 3 112 2 112 -2 0 -10 -19 -19 -42z m3 -309 c25 1
49 5 54 8 6 3 7 1 4 -4 -16 -26 -157 -44 -157 -20 0 21 12 28 34 21 12 -4 41
-6 65 -5z m140 -94 c6 -33 14 -72 17 -87 4 -17 2 -28 -4 -28 -6 0 -14 17 -17
38 -4 20 -11 59 -16 85 -11 61 -12 74 0 62 5 -6 14 -37 20 -70z m-6 -152 c4
-20 2 -33 -6 -36 -9 -3 -11 7 -9 35 5 45 7 45 15 1z m-323 -56 c0 -10 -4 -15
-10 -12 -5 3 -10 18 -10 33 0 21 2 24 10 12 5 -8 10 -23 10 -33z m284 14 c6
-10 -16 -21 -42 -21 -13 0 -12 3 4 15 22 17 31 18 38 6z m-191 -106 c-19 -23
-30 -30 -35 -22 -12 19 -10 24 17 31 14 4 25 11 25 16 0 6 5 10 10 10 6 0 -2
-16 -17 -35z"/>
<path d="M2037 2223 c-3 -4 -10 -35 -17 -68 -6 -33 -17 -73 -25 -90 -7 -16
-21 -54 -31 -84 -14 -39 -35 -71 -76 -112 -56 -56 -56 -58 -39 -78 10 -12 24
-21 31 -21 8 0 22 -8 33 -17 19 -17 20 -17 14 -1 -7 19 1 17 70 -20 35 -18 46
-20 61 -11 14 9 24 9 38 1 18 -11 18 -11 1 -12 -11 0 -17 -5 -14 -12 2 -7 11
-12 20 -12 9 1 16 -1 15 -5 0 -3 1 -13 2 -21 3 -22 39 120 39 155 0 29 0 29
-16 10 -15 -19 -15 -18 -10 18 3 20 2 37 -4 37 -5 0 -9 -4 -9 -9 0 -5 -9 -7
-20 -4 -18 5 -20 0 -20 -48 0 -39 -3 -50 -10 -39 -5 8 -10 32 -10 52 0 42 -11
52 -60 54 -19 1 -41 3 -47 3 -25 2 -16 22 34 77 29 31 43 30 45 -3 1 -16 4 37
8 117 6 149 5 157 -3 143z m-23 -218 c-7 -16 -24 -21 -24 -6 0 8 7 13 27 20 1
1 0 -6 -3 -14z"/>
<path d="M3200 2200 c0 -5 5 -10 10 -10 6 0 10 5 10 10 0 6 -4 10 -10 10 -5 0
-10 -4 -10 -10z"/>
<path d="M3250 2200 c0 -5 5 -10 10 -10 6 0 10 5 10 10 0 6 -4 10 -10 10 -5 0
-10 -4 -10 -10z"/>
<path d="M1004 2161 c-21 -16 -52 -43 -67 -60 -16 -17 -35 -31 -43 -31 -8 0
-14 -4 -14 -10 0 -15 25 -12 64 6 23 11 37 27 43 48 7 23 14 30 28 28 13 -1
24 7 32 23 15 32 5 32 -43 -4z"/>
<path d="M1817 2161 c-4 -17 -3 -21 5 -13 5 5 8 16 6 23 -3 8 -7 3 -11 -10z"/>
<path d="M2245 2170 c3 -5 8 -10 11 -10 2 0 4 5 4 10 0 6 -5 10 -11 10 -5 0
-7 -4 -4 -10z"/>
<path d="M1916 2135 c-9 -26 -7 -32 5 -12 6 10 9 21 6 23 -2 3 -7 -2 -11 -11z"/>
<path d="M2340 2096 c0 -9 5 -16 10 -16 6 0 10 4 10 9 0 6 -4 13 -10 16 -5 3
-10 -1 -10 -9z"/>
<path d="M1767 2087 c-4 -10 -7 -26 -7 -35 1 -15 2 -15 11 1 6 10 9 25 7 35
-3 16 -4 15 -11 -1z"/>
<path d="M2128 2058 c-7 -39 1 -98 12 -98 4 0 8 29 9 65 1 68 -13 89 -21 33z"/>
<path d="M2574 1995 c0 -49 1 -71 3 -48 2 23 2 64 0 90 -2 26 -3 8 -3 -42z"/>
<path d="M2620 2048 c0 -9 5 -20 10 -23 13 -8 13 5 0 25 -8 13 -10 13 -10 -2z"/>
<path d="M1092 1980 c-13 -16 -18 -30 -13 -30 6 0 17 14 26 30 9 17 14 30 12
30 -2 0 -13 -13 -25 -30z"/>
<path d="M2270 1933 c0 -35 3 -44 10 -33 13 20 13 80 0 80 -5 0 -10 -21 -10
-47z"/>
<path d="M1650 1936 c0 -22 3 -27 11 -19 8 8 8 16 0 30 -9 16 -10 14 -11 -11z"/>
<path d="M1840 1950 c0 -5 5 -10 10 -10 6 0 10 5 10 10 0 6 -4 10 -10 10 -5 0
-10 -4 -10 -10z"/>
<path d="M1070 1922 c-14 -9 -43 -34 -65 -55 -33 -32 -36 -37 -17 -32 l23 7
-17 -34 c-10 -18 -18 -40 -19 -48 -1 -8 -6 -28 -10 -45 -8 -27 -7 -29 8 -16
15 12 17 11 17 -13 0 -14 4 -26 9 -26 4 0 14 41 20 90 7 50 17 90 22 90 5 0 9
-4 9 -8 0 -5 7 -9 15 -9 8 0 15 7 15 14 0 8 -4 11 -10 8 -15 -10 -12 7 11 49
11 21 19 39 17 41 -2 2 -14 -4 -28 -13z"/>
<path d="M2142 1915 c0 -16 2 -22 5 -12 2 9 2 23 0 30 -3 6 -5 -1 -5 -18z"/>
<path d="M957 1901 c-4 -17 -3 -21 5 -13 5 5 8 16 6 23 -3 8 -7 3 -11 -10z"/>
<path d="M1805 1883 c-16 -14 -25 -22 -18 -19 14 8 29 -14 16 -23 -12 -8 -24
-51 -13 -51 7 0 53 110 48 116 -2 1 -16 -9 -33 -23z"/>
<path d="M2511 1834 c0 -24 2 -26 8 -9 8 19 8 19 15 -2 4 -13 12 -23 17 -23
16 0 10 16 -16 40 l-25 23 1 -29z"/>
<path d="M2433 1741 c3 -39 13 -82 21 -98 l15 -28 -6 38 c-3 20 -3 37 0 37 7
0 38 -53 49 -85 4 -11 5 1 2 28 -6 52 -60 177 -76 177 -7 0 -9 -24 -5 -69z"/>
<path d="M2512 1770 c0 -19 2 -27 5 -17 2 9 2 25 0 35 -3 9 -5 1 -5 -18z"/>
<path d="M1590 1749 c0 -5 5 -7 10 -4 6 3 10 8 10 11 0 2 -4 4 -10 4 -5 0 -10
-5 -10 -11z"/>
<path d="M2192 1711 c-30 -63 -68 -109 -75 -90 -2 8 -3 5 -1 -5 2 -11 -2 -28
-7 -38 -5 -10 -7 -23 -4 -28 11 -18 98 125 110 180 9 42 4 37 -23 -19z"/>
<path d="M2385 1687 c-9 -22 3 -158 16 -177 6 -10 9 3 9 41 0 31 3 69 6 85 3
18 0 37 -10 49 -14 19 -15 19 -21 2z"/>
<path d="M2223 1645 c-7 -8 -13 -18 -13 -23 0 -9 -31 -47 -72 -89 -14 -15 -24
-19 -29 -12 -5 8 -8 8 -13 0 -4 -6 -2 -11 3 -11 18 0 13 -18 -17 -58 -36 -51
-71 -90 -111 -127 l-33 -30 7 55 c5 43 4 52 -5 44 -7 -7 -15 -36 -18 -65 -6
-48 -10 -54 -46 -72 -39 -21 -68 -25 -166 -27 -48 -1 -53 -2 -37 -14 10 -8 15
-20 11 -30 -5 -13 -9 -14 -20 -5 -11 9 -14 9 -14 0 0 -19 -57 -69 -108 -95
-26 -13 -67 -43 -90 -66 -33 -33 -39 -44 -29 -55 13 -14 35 -7 57 19 17 21 84
22 76 1 -3 -8 -3 -15 0 -15 2 0 9 11 14 24 12 33 64 45 91 20 11 -10 19 -12
19 -6 0 14 32 16 45 3 6 -5 21 -11 35 -13 24 -3 23 -5 -17 -31 -24 -15 -48
-27 -55 -26 -7 0 -4 4 7 9 20 9 20 9 0 9 -11 1 -37 -8 -58 -19 -46 -25 -74
-26 -79 -2 -3 11 -9 3 -17 -23 -8 -22 -22 -51 -31 -65 -10 -14 -19 -36 -21
-50 -3 -29 25 -131 49 -175 44 -82 54 -207 23 -296 -32 -92 -56 -154 -62 -159
-3 -3 -14 -20 -23 -37 -19 -37 -25 -39 -66 -18 -17 9 -30 11 -30 6 0 -5 7 -11
15 -15 8 -3 15 -12 15 -19 0 -12 27 -74 37 -87 2 -2 8 1 12 8 6 11 13 11 35 1
21 -10 32 -10 46 -1 12 7 21 8 25 2 10 -17 95 -12 95 4 0 24 16 26 38 6 18
-17 36 -20 117 -20 l95 0 0 69 c0 62 3 72 25 89 14 11 25 25 25 31 0 6 6 11
13 11 27 0 47 34 41 70 -4 28 2 46 29 91 27 44 32 61 25 80 -5 13 -6 40 -3 61
6 34 4 38 -19 44 -14 3 -26 10 -26 15 0 5 -6 6 -14 3 -7 -3 -21 7 -31 23 -10
15 -29 40 -43 56 l-26 27 29 29 c46 45 55 58 55 84 0 14 7 30 15 37 17 14 21
35 4 24 -20 -12 8 29 56 81 25 27 45 53 45 58 0 4 11 18 25 31 32 30 31 37 -8
61 -47 28 -54 30 -37 10 13 -16 12 -17 -5 -13 -11 2 -19 11 -19 21 1 10 -18
30 -47 49 -57 37 -63 65 -24 113 l24 30 1 -37 c0 -45 16 -58 23 -20 3 15 10
43 15 62 l9 35 18 -40 19 -40 5 67 c4 36 8 68 11 70 21 14 51 28 60 28 5 0 10
-18 10 -40 0 -22 3 -40 8 -40 7 0 35 85 52 158 9 38 -1 42 -24 7 -9 -14 -21
-25 -27 -25 -8 0 -8 4 -1 13 5 6 12 40 14 73 3 40 10 67 21 78 9 10 17 19 17
22 0 9 -16 3 -27 -11z m-43 -117 c-1 -62 -14 -88 -56 -112 -35 -19 -44 -21
-44 -10 0 8 15 21 34 29 44 19 58 38 21 29 l-27 -7 29 41 c29 42 43 52 43 30z
m-220 -328 c0 -5 -4 -10 -10 -10 -5 0 -10 5 -10 10 0 6 5 10 10 10 6 0 10 -4
10 -10z m-144 -78 c-8 -24 -57 -44 -77 -31 -11 7 -9 9 6 9 11 0 32 11 45 24
28 27 35 26 26 -2z m-214 -34 c-7 -7 -12 -22 -12 -35 0 -14 -6 -23 -15 -23
-12 0 -14 7 -9 28 9 37 13 42 32 42 12 0 13 -3 4 -12z m416 -45 c-10 -2 -18
-8 -18 -13 0 -4 -11 -15 -24 -24 -24 -15 -25 -15 -40 14 l-14 30 56 -1 c31 -1
49 -3 40 -6z m65 -53 c-5 -18 -7 -18 -29 -3 -31 20 -30 23 5 23 24 0 28 -3 24
-20z m-258 -50 c4 -6 -11 -10 -39 -10 -25 0 -48 5 -51 10 -4 6 11 10 39 10 25
0 48 -4 51 -10z m105 0 c0 -5 -5 -10 -11 -10 -5 0 -7 5 -4 10 3 6 8 10 11 10
2 0 4 -4 4 -10z m-49 -64 c14 -15 11 -26 -6 -26 -8 0 -15 -4 -15 -8 0 -5 -16
-17 -35 -28 -19 -10 -35 -24 -35 -31 0 -7 -3 -12 -7 -12 -5 1 -10 0 -13 -1
-18 -7 -56 -6 -61 2 -4 6 -14 5 -26 -3 -28 -17 -53 -5 -54 28 l-2 28 -4 -27
c-2 -14 -15 -33 -28 -42 -22 -15 -24 -14 -30 5 -5 16 -12 19 -31 15 -30 -8
-30 3 -2 71 21 51 23 53 59 53 21 0 41 -5 45 -11 5 -8 10 -6 16 5 12 21 44 21
57 -1 7 -12 10 -14 11 -4 0 10 8 12 30 8 19 -4 30 -2 30 5 0 6 11 8 28 5 15
-3 34 -2 42 3 11 7 16 5 18 -8 2 -9 8 -21 13 -26z m59 -46 c0 -16 -4 -30 -10
-30 -11 0 -14 43 -3 53 11 12 13 8 13 -23z m29 -67 c-12 -33 -89 -93 -119 -93
-30 0 -24 23 10 38 16 7 46 29 67 47 46 42 55 43 42 8z m-393 -54 c3 -5 -9 -9
-25 -9 -20 0 -31 5 -31 14 0 15 46 11 56 -5z m135 -33 c-17 -21 -105 -38 -133
-26 -20 8 -18 9 17 10 22 1 56 8 75 15 46 18 55 18 41 1z m127 -79 c2 -33 7
-55 13 -52 5 4 9 15 9 26 0 11 9 29 19 41 l20 20 26 -28 c26 -28 27 -31 20
-117 -3 -48 -14 -108 -24 -135 -23 -62 -63 -144 -78 -160 -7 -7 -13 -23 -13
-35 0 -31 -22 -86 -37 -91 -7 -3 -13 1 -13 9 0 8 -9 21 -21 29 -17 12 -20 23
-18 58 3 35 1 44 -12 44 -9 0 -15 -5 -14 -11 2 -5 6 -24 9 -42 l5 -32 -48 30
c-29 17 -55 43 -65 63 -8 18 -22 39 -31 46 -17 14 -21 50 -5 50 6 0 10 11 10
25 0 14 5 25 10 25 6 0 10 -8 10 -19 0 -10 17 -31 38 -46 l37 -28 -26 29 c-40
44 -49 67 -49 126 0 30 -4 58 -9 64 -5 5 -13 26 -16 47 l-8 39 52 -3 c43 -2
55 1 78 22 54 49 87 70 107 67 18 -3 21 -11 24 -61z m-163 -7 c-3 -5 -13 -10
-21 -10 -8 0 -14 5 -14 10 0 6 9 10 21 10 11 0 17 -4 14 -10z m-155 -570 c0
-5 -2 -10 -4 -10 -3 0 -8 5 -11 10 -3 6 -1 10 4 10 6 0 11 -4 11 -10z"/>
<path d="M1632 850 c0 -14 2 -19 5 -12 2 6 2 18 0 25 -3 6 -5 1 -5 -13z"/>
<path d="M1761 854 c0 -11 3 -14 6 -6 3 7 2 16 -1 19 -3 4 -6 -2 -5 -13z"/>
<path d="M1681 835 c9 -9 23 -13 32 -9 28 10 19 24 -15 24 -29 0 -31 -2 -17
-15z"/>
<path d="M1758 807 c-3 -19 -2 -25 4 -19 6 6 8 18 6 28 -3 14 -5 12 -10 -9z"/>
<path d="M1788 606 c-3 -14 -2 -29 3 -33 4 -4 9 -19 12 -33 2 -14 5 1 6 33 1
57 -13 78 -21 33z"/>
<path d="M1735 544 c-19 -19 -15 -27 9 -18 9 3 16 12 16 20 0 18 -5 18 -25 -2z"/>
<path d="M1797 454 c-4 -4 -7 -23 -6 -43 l1 -36 9 33 c11 36 9 58 -4 46z"/>
<path d="M1771 143 c0 -25 1 -26 9 -8 12 27 12 35 0 35 -5 0 -10 -12 -9 -27z"/>
<path d="M1875 1630 c-3 -5 -1 -10 4 -10 6 0 11 5 11 10 0 6 -2 10 -4 10 -3 0
-8 -4 -11 -10z"/>
<path d="M2328 1584 c-3 -5 -9 -36 -12 -69 -5 -42 -4 -56 3 -45 8 12 11 8 11
-17 0 -17 4 -34 9 -37 23 -15 28 78 7 138 -7 21 -16 35 -18 30z"/>
<path d="M2266 1508 c-3 -17 -2 -36 4 -42 7 -7 10 4 10 32 0 50 -5 54 -14 10z"/>
<path d="M3494 1475 c-8 -47 2 -114 26 -161 19 -37 20 -37 20 -10 0 15 -4 35
-10 45 -11 22 7 66 33 78 16 7 15 11 -8 46 -32 47 -52 48 -61 2z"/>
<path d="M2296 1441 c-4 -7 -5 -15 -2 -18 9 -9 19 4 14 18 -4 11 -6 11 -12 0z"/>
<path d="M1059 1413 c-13 -15 -12 -15 9 -4 23 12 28 21 13 21 -5 0 -15 -7 -22
-17z"/>
<path d="M1750 1380 c-25 -16 30 -30 60 -15 14 7 32 15 40 18 8 3 -7 6 -35 6
-27 0 -57 -4 -65 -9z"/>
<path d="M2237 1373 c-4 -3 -7 -11 -7 -17 0 -6 5 -5 12 2 6 6 9 14 7 17 -3 3
-9 2 -12 -2z"/>
<path d="M3340 1355 c-16 -42 -13 -65 10 -65 15 0 20 -7 20 -27 -1 -27 -1 -27
-15 -9 -17 22 -21 2 -6 -23 8 -12 12 -12 25 -2 9 8 16 19 16 27 0 7 7 20 17
29 15 15 15 19 -5 53 -26 46 -49 52 -62 17z"/>
<path d="M1383 1329 c-9 -9 -8 -15 2 -25 18 -18 35 -17 60 3 19 15 18 15 -18
10 -31 -5 -38 -3 -33 8 7 18 4 19 -11 4z"/>
<path d="M1614 1314 c3 -9 6 -18 6 -20 0 -9 69 -3 75 6 7 11 -35 30 -67 30
-14 0 -18 -5 -14 -16z"/>
<path d="M3650 1268 c1 -15 50 -78 50 -64 0 10 -40 76 -46 76 -2 0 -4 -6 -4
-12z"/>
<path d="M1535 1250 c-3 -5 -20 -10 -36 -10 -23 0 -42 -12 -82 -53 -29 -29
-60 -68 -70 -87 -10 -19 -12 -28 -5 -19 7 8 36 28 63 44 28 16 56 35 63 42 7
7 31 16 53 19 21 4 44 12 50 20 9 11 5 11 -22 4 -39 -11 -43 -9 -26 13 6 9 29
19 51 21 53 7 58 16 8 16 -22 0 -44 -4 -47 -10z"/>
<path d="M3550 1217 c0 -8 11 -24 24 -36 l24 -23 -16 36 c-17 36 -32 47 -32
23z"/>
<path d="M3401 1114 c-1 -6 10 -37 24 -68 14 -31 25 -63 25 -71 0 -8 4 -15 8
-15 11 0 32 -60 32 -90 0 -13 3 -20 7 -17 10 11 4 96 -8 120 -7 12 -18 29 -26
37 -8 8 -25 38 -38 65 -13 28 -24 45 -24 39z"/>
<path d="M3605 1105 c11 -30 33 -107 39 -135 3 -14 3 7 0 45 -4 54 -10 75 -26
90 l-21 20 8 -20z"/>
<path d="M3766 1084 c-11 -8 -16 -14 -10 -14 13 0 39 18 34 24 -3 2 -14 -2
-24 -10z"/>
<path d="M3760 1031 c0 -18 31 -83 37 -77 8 8 -18 86 -29 86 -4 0 -8 -4 -8 -9z"/>
<path d="M970 975 c-7 -14 -19 -25 -25 -25 -7 0 -20 -9 -30 -20 -10 -11 -66
-44 -126 -74 -91 -47 -121 -57 -196 -66 -107 -14 -180 -36 -207 -62 -12 -11
-30 -24 -41 -28 -12 -5 4 -6 40 -4 l60 4 55 -65 c30 -36 61 -72 68 -80 15 -16
57 -100 67 -132 6 -23 -8 -32 -20 -13 -3 6 -12 10 -18 10 -7 0 -3 -7 8 -16 11
-8 20 -19 20 -24 0 -5 10 -18 23 -30 40 -37 131 -203 102 -185 -17 11 -11 -5
11 -28 39 -41 51 -66 45 -92 -4 -14 -11 -23 -16 -20 -13 8 -50 -3 -50 -15 0
-4 48 -8 108 -9 l107 -1 22 48 c13 26 37 62 54 81 30 32 33 32 46 15 12 -16
13 -15 13 16 0 18 16 84 35 146 28 91 39 113 57 117 29 8 38 1 38 -29 0 -13 4
-24 9 -24 5 0 9 17 9 39 1 35 -3 41 -49 70 -27 18 -49 38 -49 45 0 7 11 26 23
44 l24 32 13 -43 c7 -23 15 -37 17 -31 2 6 -13 73 -33 150 -20 76 -38 149 -41
162 -3 12 -10 25 -15 28 -9 6 -8 2 22 -121 l18 -70 -56 -112 c-31 -62 -59
-113 -63 -113 -3 0 -18 36 -33 80 -41 126 -58 425 -25 446 11 7 12 24 1 24 -5
0 -15 -11 -22 -25z"/>
<path d="M3881 997 c-2 -15 27 -75 40 -82 8 -6 10 -4 4 5 -4 7 -2 16 5 20 9 6
7 10 -7 14 -11 4 -25 16 -31 29 -6 12 -11 18 -11 14z"/>
<path d="M1380 935 c0 -8 4 -15 9 -15 5 0 14 7 21 15 10 13 9 15 -9 15 -12 0
-21 -6 -21 -15z"/>
<path d="M3103 924 c-5 -13 3 -25 27 -46 34 -28 78 -42 52 -16 -16 16 -15 33
4 52 14 15 13 16 -8 16 -13 0 -33 3 -45 6 -16 5 -25 1 -30 -12z m47 -34 c0 -5
-4 -10 -10 -10 -5 0 -10 5 -10 10 0 6 5 10 10 10 6 0 10 -4 10 -10z"/>
<path d="M3651 914 c0 -11 3 -14 6 -6 3 7 2 16 -1 19 -3 4 -6 -2 -5 -13z"/>
<path d="M2080 892 c0 -5 -12 -15 -27 -22 -17 -7 -23 -14 -15 -17 7 -3 19 0
26 7 11 9 16 5 21 -19 4 -17 11 -33 16 -36 5 -4 9 -50 9 -104 0 -93 5 -116 40
-196 4 -11 14 -42 20 -70 6 -27 17 -63 24 -80 13 -29 33 -97 55 -181 6 -23 11
-57 11 -76 0 -20 3 -50 6 -67 l7 -31 228 0 229 0 -7 27 c-4 16 -8 80 -8 143 0
63 -1 100 -3 83 -7 -69 -27 -26 -52 107 -18 102 -85 287 -122 342 -10 14 -18
34 -18 43 0 15 8 17 66 10 37 -4 80 -15 97 -26 59 -35 184 -241 207 -339 14
-59 39 -124 46 -118 2 3 -9 45 -25 94 -40 127 -114 275 -161 322 -22 22 -40
44 -40 50 0 16 -30 23 -128 29 -62 4 -99 11 -108 20 -9 9 -50 18 -107 23 -92
9 -133 17 -152 30 -5 3 -30 13 -54 20 -24 8 -45 20 -48 27 -6 14 -33 18 -33 5z"/>
<path d="M3981 806 c-6 -27 -10 -51 -7 -53 7 -7 28 76 23 90 -2 6 -9 -10 -16
-37z"/>
<path d="M3265 820 c-3 -5 9 -11 26 -15 16 -4 49 -18 72 -31 23 -13 46 -24 51
-24 13 0 -24 39 -49 53 -28 15 -94 26 -100 17z"/>
<path d="M273 670 c-13 -5 -23 -12 -23 -15 0 -9 16 -5 36 10 22 16 19 18 -13
5z"/>
<path d="M3480 640 c4 -25 11 -106 15 -181 l7 -137 -38 -12 c-22 -7 -41 -16
-44 -20 -3 -4 -22 -16 -42 -27 -21 -11 -35 -23 -31 -27 3 -3 -1 -7 -10 -7 -46
-4 -49 -7 -63 -77 -6 -31 -18 -78 -27 -104 l-15 -48 56 0 c44 0 53 3 44 12
-15 15 -15 43 0 67 10 17 13 17 49 2 32 -13 39 -21 40 -46 l2 -30 4 28 c4 23
9 27 37 27 18 0 45 -9 59 -20 31 -25 32 -25 57 0 12 12 33 20 54 20 19 0 38 4
41 10 4 6 -10 10 -34 10 -22 0 -42 4 -45 9 -3 4 -19 11 -36 14 -34 7 -36 17
-16 75 13 35 13 48 0 94 -8 29 -17 86 -21 126 -5 61 -4 72 10 72 14 0 14 5 -2
50 -10 28 -21 53 -24 57 -12 11 -8 23 8 23 8 0 15 5 15 10 0 6 -7 10 -15 10
-8 0 -15 6 -15 13 0 7 -6 22 -14 33 -13 17 -13 14 -6 -26z"/>
<path d="M3553 664 c-3 -8 -1 -20 6 -27 8 -8 11 -4 11 16 0 30 -7 35 -17 11z"/>
<path d="M206 635 c-11 -8 -15 -15 -10 -15 6 0 19 7 30 15 10 8 15 14 9 14 -5
0 -19 -6 -29 -14z"/>
<path d="M110 541 c-15 -29 -13 -272 5 -400 8 -63 15 -121 15 -128 0 -7 5 -13
10 -13 15 0 12 59 -10 210 -22 146 -26 266 -11 318 11 36 7 42 -9 13z"/>
<path d="M2098 510 c-4 -14 -8 -42 -8 -62 0 -20 -4 -48 -10 -62 -6 -16 -6 -27
0 -31 6 -4 10 5 10 19 0 13 5 26 11 28 6 2 9 29 7 68 -2 47 -5 58 -10 40z"/>
<path d="M3907 467 c-4 -10 -7 -35 -6 -55 l1 -37 9 34 c6 18 9 43 7 55 -3 19
-4 19 -11 3z"/>
<path d="M1180 401 c0 -19 33 -101 44 -111 11 -8 12 -3 5 27 -13 63 -20 81
-35 87 -8 3 -14 2 -14 -3z"/>
<path d="M3892 340 c0 -19 2 -27 5 -17 2 9 2 25 0 35 -3 9 -5 1 -5 -18z"/>
<path d="M1512 340 c0 -14 2 -19 5 -12 2 6 2 18 0 25 -3 6 -5 1 -5 -13z"/>
<path d="M3870 217 c0 -13 -4 -27 -9 -32 -12 -14 -23 -77 -12 -71 12 8 22 -20
15 -39 -4 -9 0 -15 10 -15 11 0 16 -10 17 -32 1 -20 3 -25 6 -13 2 11 14 55
26 99 l21 78 -29 24 c-37 30 -45 30 -45 1z"/>
<path d="M1313 184 c9 -11 20 -35 23 -52 7 -35 29 -44 31 -13 1 10 -15 34 -35
52 -20 19 -29 25 -19 13z"/>
<path d="M3013 148 c9 -7 21 -31 26 -53 l9 -40 1 37 c1 36 -19 68 -42 68 -6 0
-3 -6 6 -12z"/>
<path d="M1351 64 c0 -11 3 -14 6 -6 3 7 2 16 -1 19 -3 4 -6 -2 -5 -13z"/>
<path d="M3051 28 c-1 -16 4 -28 9 -28 12 0 12 8 0 35 -8 18 -9 17 -9 -7z"/>
</g>
</svg>
